<svg xmlns="http://www.w3.org/2000/svg" viewBox="0 0 40.4 52"><path fill-rule="evenodd" clip-rule="evenodd" d="M35.4 52h-30.4c-2.8 0-5-2.2-5-5v-21.4c0-2.8 2.2-5 5-5h.4v-5.8c0-8.2 6.6-14.8 14.7-14.8s14.7 6.6 14.7 14.7v5.8h.6c2.8 0 5 2.2 5 5v21.5c0 2.8-2.2 5-5 5zm-18.7-7.2c0 .1 0 .2.1.3.1.1.2.1.3.1h6.2c.2 0 .4-.2.4-.4v-.1l-1.7-8c1.5-.7 2.5-2.2 2.5-3.8 0-2.3-1.9-4.2-4.2-4.2s-4.3 2-4.3 4.3c0 1.6.9 3 2.3 3.8l-1.6 8zm10.9-30.1c0-4.1-3.4-7.5-7.5-7.5s-7.5 3.4-7.5 7.5v5.8h15v-5.8z" id="path-0" transform="" fill="#737272" style="position: relative; fill: rgb(115, 114, 114); stroke: none;"></path></svg>